<svg xmlns="http://www.w3.org/2000/svg" viewBox="0 0 457.68 598.13"><defs><style>.a{fill:#ccc;opacity:0.5;}.b,.c,.d,.e{fill:none;stroke:#000;stroke-miterlimit:10;}.b{stroke-width:7px;}.d{stroke-width:2px;}.e{stroke-width:3px;}.f{fill:#7d8fd1;}.g,.h{opacity:0.6;}.i{fill:#039;}.j{fill:#069;}.k{fill:#39c;}.l{fill:#099;}.m{fill:#066;}.n{fill:#7cceb7;}</style></defs><title>OWSP-GEN-102-O_piso3_simplificado</title><rect class="a" x="151.28" y="170.56" width="141.1" height="261.25"/><polyline class="b" points="258.45 396.91 214.43 396.91 214.43 205.94 258.45 205.94"/><line class="c" x1="152.14" y1="251.82" x2="180.18" y2="251.82"/><line class="c" x1="152.14" y1="257.32" x2="180.18" y2="257.32"/><line class="c" x1="152.14" y1="262.82" x2="180.18" y2="262.82"/><line class="c" x1="152.14" y1="268.32" x2="180.18" y2="268.32"/><line class="c" x1="152.14" y1="273.82" x2="180.18" y2="273.82"/><line class="c" x1="152.14" y1="279.32" x2="180.18" y2="279.32"/><line class="c" x1="152.14" y1="284.82" x2="180.18" y2="284.82"/><line class="c" x1="152.14" y1="290.32" x2="180.18" y2="290.32"/><line class="c" x1="152.14" y1="295.82" x2="180.18" y2="295.82"/><line class="c" x1="152.14" y1="301.32" x2="180.18" y2="301.32"/><line class="c" x1="152.14" y1="306.82" x2="180.18" y2="306.82"/><line class="c" x1="152.14" y1="312.32" x2="180.18" y2="312.32"/><line class="c" x1="152.14" y1="317.82" x2="180.18" y2="317.82"/><line class="c" x1="152.14" y1="323.32" x2="180.18" y2="323.32"/><line class="c" x1="152.14" y1="328.82" x2="180.18" y2="328.82"/><line class="c" x1="152.14" y1="334.32" x2="180.18" y2="334.32"/><line class="c" x1="152.14" y1="339.82" x2="180.18" y2="339.82"/><line class="c" x1="152.14" y1="345.32" x2="180.18" y2="345.32"/><line class="c" x1="180.18" y1="251.82" x2="180.18" y2="345.32"/><line class="c" x1="152.14" y1="251.82" x2="152.14" y2="345.32"/><line class="c" x1="182.22" y1="251.82" x2="210.26" y2="251.82"/><line class="c" x1="182.22" y1="257.32" x2="210.26" y2="257.32"/><line class="c" x1="182.22" y1="262.82" x2="210.26" y2="262.82"/><line class="c" x1="182.22" y1="268.32" x2="210.26" y2="268.32"/><line class="c" x1="182.22" y1="273.82" x2="210.26" y2="273.82"/><line class="c" x1="182.22" y1="279.32" x2="210.26" y2="279.32"/><line class="c" x1="182.22" y1="284.82" x2="210.26" y2="284.82"/><line class="c" x1="182.22" y1="290.32" x2="210.26" y2="290.32"/><line class="c" x1="182.22" y1="295.82" x2="210.26" y2="295.82"/><line class="c" x1="182.22" y1="301.32" x2="210.26" y2="301.32"/><line class="c" x1="182.22" y1="306.82" x2="210.26" y2="306.82"/><line class="c" x1="182.22" y1="312.32" x2="210.26" y2="312.32"/><line class="c" x1="182.22" y1="317.82" x2="210.26" y2="317.82"/><line class="c" x1="182.22" y1="323.32" x2="210.26" y2="323.32"/><line class="c" x1="182.22" y1="328.82" x2="210.26" y2="328.82"/><line class="c" x1="182.22" y1="334.32" x2="210.26" y2="334.32"/><line class="c" x1="182.22" y1="339.82" x2="210.26" y2="339.82"/><line class="c" x1="182.22" y1="345.32" x2="210.26" y2="345.32"/><line class="c" x1="210.26" y1="251.82" x2="210.26" y2="345.32"/><line class="c" x1="182.22" y1="251.82" x2="182.22" y2="345.32"/><rect class="d" x="302.93" y="443.03" width="28.9" height="28.51" transform="translate(-218.37 692.68) rotate(-90)"/><line class="d" x1="224.66" y1="389.76" x2="253.17" y2="360.85"/><line class="d" x1="253.17" y1="389.76" x2="224.66" y2="360.85"/><rect class="d" x="302.93" y="406.19" width="28.9" height="28.51" transform="translate(-181.53 655.85) rotate(-90)"/><line class="d" x1="224.66" y1="352.92" x2="253.17" y2="324.02"/><line class="d" x1="253.17" y1="352.92" x2="224.66" y2="324.02"/><rect class="d" x="302.93" y="369.43" width="28.9" height="28.51" transform="translate(-144.77 619.08) rotate(-90)"/><line class="d" x1="224.66" y1="316.16" x2="253.17" y2="287.25"/><line class="d" x1="253.17" y1="316.16" x2="224.66" y2="287.25"/><rect class="d" x="302.93" y="332.74" width="28.9" height="28.51" transform="translate(-108.08 582.39) rotate(-90)"/><line class="d" x1="224.66" y1="279.47" x2="253.17" y2="250.56"/><line class="d" x1="253.17" y1="279.47" x2="224.66" y2="250.56"/><rect class="d" x="302.93" y="295.93" width="28.9" height="28.51" transform="translate(-71.27 545.58) rotate(-90)"/><line class="d" x1="224.66" y1="242.66" x2="253.17" y2="213.75"/><line class="d" x1="253.17" y1="242.66" x2="224.66" y2="213.75"/><polygon class="e" points="1.62 7.98 32.82 7.98 32.82 1.5 424.86 1.5 424.86 8.22 456.18 8.22 456.18 589.26 423.3 589.26 423.3 596.63 33.66 596.63 33.66 589.98 1.5 589.98 1.62 7.98"/><rect class="f" x="110.7" y="108.66" width="157.68" height="50.16"/><g class="g"><polygon points="258.78 444.94 139.59 444.94 139.59 159.56 258.78 159.56 258.78 170.56 150.63 170.56 150.63 433.94 258.78 433.94 258.78 444.94"/></g><rect class="f" x="112.02" y="443.94" width="193.31" height="47.16"/><rect class="h" x="221.7" y="9.42" width="13.68" height="56.4"/><rect class="h" x="222" y="532.98" width="13.68" height="56.4"/><rect class="h" x="495.3" y="569.07" width="13.68" height="48.95" transform="translate(1017.22 9.43) rotate(90)"/><rect class="h" x="495.23" y="144.73" width="13.68" height="48.82" transform="translate(592.75 -414.91) rotate(90)"/><rect class="h" x="80.34" y="9.42" width="14.16" height="14.16"/><rect class="h" x="9.62" y="80.02" width="14.16" height="14.16"/><rect class="h" x="9.62" y="221.66" width="14.16" height="14.16"/><rect class="h" x="9.62" y="362.9" width="14.16" height="14.16"/><rect class="h" x="9.62" y="504.17" width="14.16" height="14.16"/><rect class="h" x="80.34" y="575.04" width="14.16" height="14.16"/><rect class="h" x="292.46" y="362.96" width="14.16" height="14.16"/><rect class="h" x="433.74" y="362.96" width="14.16" height="14.16"/><rect class="h" x="292.46" y="221.74" width="14.16" height="14.16"/><rect class="h" x="110.7" y="288.84" width="28.8" height="21.06"/><rect class="h" x="433.74" y="221.74" width="14.16" height="14.16"/><rect class="h" x="363.23" y="9.42" width="14.16" height="14.16"/><rect class="i" x="9.06" y="95.46" width="23.04" height="23.79"/><rect class="i" x="55.02" y="95.46" width="23.04" height="23.79"/><rect class="j" x="32.1" y="95.45" width="22.92" height="23.81"/><rect class="k" x="9.06" y="144.06" width="22.57" height="23.88"/><rect class="k" x="9.06" y="321.78" width="22.95" height="23.88"/><rect class="k" x="9.06" y="393.27" width="22.97" height="23.88"/><rect class="j" x="32.1" y="157.38" width="22.92" height="23.88"/><rect class="j" x="55.02" y="133.5" width="23.04" height="23.76"/><rect class="i" x="32.1" y="133.5" width="22.92" height="23.76"/><rect class="i" x="55.02" y="157.38" width="23.04" height="23.88"/><rect class="j" x="32.1" y="219.17" width="22.92" height="23.88"/><rect class="j" x="55.02" y="195.29" width="23.04" height="23.76"/><rect class="i" x="32.1" y="195.29" width="22.92" height="23.76"/><rect class="i" x="55.02" y="219.17" width="23.04" height="23.88"/><rect class="j" x="32.06" y="282.91" width="22.92" height="23.88"/><rect class="j" x="9.02" y="195.29" width="22.92" height="23.88"/><rect class="j" x="55" y="257.3" width="23.04" height="23.76"/><rect class="i" x="32.08" y="257.3" width="22.92" height="23.76"/><rect class="i" x="9.14" y="282.91" width="22.92" height="23.88"/><rect class="j" x="9.16" y="257.3" width="22.92" height="23.76"/><rect class="i" x="54.98" y="282.91" width="23.04" height="23.88"/><rect class="j" x="32.01" y="344.68" width="22.92" height="23.88"/><rect class="j" x="54.95" y="320.92" width="23.04" height="23.76"/><rect class="i" x="32.03" y="320.92" width="22.92" height="23.76"/><rect class="i" x="54.93" y="344.68" width="23.04" height="23.88"/><rect class="j" x="32.01" y="406.62" width="22.92" height="23.88"/><rect class="j" x="54.95" y="382.86" width="23.04" height="23.76"/><rect class="i" x="32.03" y="382.86" width="22.92" height="23.76"/><rect class="i" x="54.93" y="406.62" width="23.04" height="23.88"/><rect class="j" x="32.01" y="468.48" width="22.92" height="23.88"/><rect class="j" x="54.95" y="444.72" width="23.04" height="23.76"/><rect class="i" x="32.03" y="444.72" width="22.92" height="23.76"/><rect class="i" x="9.08" y="468.48" width="22.92" height="23.88"/><rect class="j" x="9.09" y="444.72" width="22.92" height="23.76"/><rect class="i" x="54.93" y="468.48" width="23.04" height="23.88"/><polygon class="k" points="72.42 52.5 82.14 69.3 99.6 58.94 99.6 45.79 82.14 35.7 72.42 52.5"/><polygon class="i" points="72.48 52.5 82.17 35.7 64.67 25.55 53.1 32.33 53.09 52.48 72.48 52.5"/><polygon class="j" points="72.47 52.5 53.09 52.54 53.35 72.82 64.74 79.38 82.17 69.29 72.47 52.5"/><polygon class="k" points="33.76 52.47 24.04 35.66 6.58 46.03 6.58 59.18 24.04 69.27 33.76 52.47"/><polygon class="i" points="33.7 52.47 24.01 69.26 41.51 79.41 53.08 72.64 53.09 52.49 33.7 52.47"/><polygon class="j" points="33.7 52.47 53.09 52.43 52.83 32.14 41.44 25.59 24.01 35.68 33.7 52.47"/><polygon class="k" points="72.3 546.98 82.02 563.78 99.48 553.41 99.48 540.26 82.02 530.18 72.3 546.98"/><polygon class="i" points="72.36 546.98 82.04 530.18 64.54 520.03 52.98 526.81 52.97 546.95 72.36 546.98"/><polygon class="j" points="72.35 546.98 52.96 547.02 53.23 567.3 64.61 573.86 82.05 563.77 72.35 546.98"/><polygon class="k" points="33.64 546.94 23.92 530.14 6.45 540.51 6.45 553.66 23.92 563.74 33.64 546.94"/><polygon class="i" points="33.57 546.94 23.89 563.74 41.39 573.89 52.95 567.11 52.96 546.97 33.57 546.94"/><polygon class="j" points="33.58 546.94 52.97 546.9 52.7 526.62 41.32 520.06 23.88 530.15 33.58 546.94"/><polygon class="k" points="359.74 551.56 369.46 568.36 386.93 557.99 386.93 544.84 369.46 534.76 359.74 551.56"/><polygon class="i" points="359.81 551.56 369.49 534.76 351.99 524.61 340.43 531.39 340.42 551.53 359.81 551.56"/><polygon class="j" points="359.8 551.56 340.41 551.6 340.68 571.88 352.06 578.43 369.5 568.35 359.8 551.56"/><polygon class="k" points="424.19 551.58 414.47 534.78 397 545.14 397 558.29 414.47 568.38 424.19 551.58"/><polygon class="i" points="424.13 551.58 414.44 568.38 431.94 578.53 443.51 571.75 443.52 551.6 424.13 551.58"/><polygon class="j" points="424.13 551.58 443.52 551.54 443.25 531.26 431.87 524.7 414.44 534.79 424.13 551.58"/><rect class="i" x="339.54" y="94.26" width="22.92" height="23.85"/><rect class="j" x="362.46" y="94.26" width="23.02" height="23.85"/><rect class="i" x="385.48" y="94.26" width="22.95" height="23.85"/><rect class="j" x="408.43" y="94.34" width="23.05" height="23.85"/><rect class="j" x="339.54" y="131.62" width="22.92" height="23.85"/><rect class="i" x="362.46" y="131.62" width="23.02" height="23.85"/><rect class="j" x="385.48" y="131.62" width="22.95" height="23.85"/><rect class="i" x="408.43" y="131.7" width="23.05" height="23.85"/><rect class="i" x="339.54" y="155.55" width="22.92" height="23.85"/><rect class="j" x="362.46" y="155.55" width="23.02" height="23.85"/><rect class="i" x="385.48" y="155.55" width="22.95" height="23.85"/><rect class="j" x="408.43" y="155.63" width="23.05" height="23.85"/><rect class="j" x="339.54" y="192.89" width="22.92" height="23.85"/><rect class="i" x="362.46" y="192.89" width="23.02" height="23.85"/><rect class="j" x="385.48" y="192.89" width="22.95" height="23.85"/><rect class="i" x="408.43" y="192.97" width="23.05" height="23.85"/><rect class="i" x="339.54" y="216.82" width="22.92" height="23.85"/><rect class="j" x="362.46" y="216.82" width="23.02" height="23.85"/><rect class="i" x="385.48" y="216.82" width="22.95" height="23.85"/><rect class="j" x="408.43" y="216.9" width="23.05" height="23.85"/><rect class="j" x="339.54" y="254.94" width="22.92" height="23.85"/><rect class="i" x="362.46" y="254.94" width="23.02" height="23.85"/><rect class="j" x="385.48" y="254.94" width="22.95" height="23.85"/><rect class="i" x="408.43" y="254.94" width="23.05" height="23.85"/><rect class="i" x="339.54" y="278.86" width="22.92" height="23.85"/><rect class="j" x="362.46" y="278.86" width="23.02" height="23.85"/><rect class="i" x="385.48" y="278.86" width="22.95" height="23.85"/><rect class="j" x="408.43" y="278.86" width="23.05" height="23.85"/><rect class="j" x="339.54" y="317.79" width="22.92" height="23.85"/><rect class="i" x="362.46" y="317.79" width="23.02" height="23.85"/><rect class="j" x="385.48" y="317.79" width="22.95" height="23.85"/><rect class="i" x="408.43" y="317.79" width="23.05" height="23.85"/><rect class="i" x="339.54" y="341.71" width="22.92" height="23.85"/><rect class="j" x="362.46" y="341.71" width="23.02" height="23.85"/><rect class="i" x="385.48" y="341.71" width="22.95" height="23.85"/><rect class="j" x="408.43" y="341.71" width="23.05" height="23.85"/><rect class="j" x="339.54" y="382.39" width="22.92" height="23.85"/><rect class="i" x="362.46" y="382.39" width="23.02" height="23.85"/><rect class="j" x="385.48" y="382.39" width="22.95" height="23.85"/><rect class="i" x="408.43" y="382.39" width="23.05" height="23.85"/><rect class="i" x="339.54" y="406.31" width="22.92" height="23.85"/><rect class="j" x="362.46" y="406.31" width="23.02" height="23.85"/><rect class="i" x="385.48" y="406.31" width="22.95" height="23.85"/><rect class="j" x="408.43" y="406.31" width="23.05" height="23.85"/><rect class="j" x="339.54" y="443.94" width="22.92" height="23.85"/><rect class="i" x="362.46" y="443.94" width="23.02" height="23.85"/><rect class="j" x="385.48" y="443.94" width="22.95" height="23.85"/><rect class="i" x="408.43" y="443.94" width="23.05" height="23.85"/><rect class="i" x="339.54" y="467.86" width="22.92" height="23.85"/><rect class="j" x="362.46" y="467.86" width="23.02" height="23.85"/><rect class="i" x="385.48" y="467.86" width="22.95" height="23.85"/><rect class="j" x="408.43" y="467.86" width="23.05" height="23.85"/><rect class="j" x="431.4" y="443.94" width="23.05" height="23.85"/><rect class="i" x="431.4" y="467.86" width="23.05" height="23.85"/><rect class="j" x="431.48" y="254.94" width="23.05" height="23.85"/><rect class="i" x="431.48" y="278.86" width="23.05" height="23.85"/><rect class="k" x="431.48" y="145.36" width="22.9" height="20.83"/><rect class="k" x="431.48" y="197.42" width="22.9" height="23.44"/><rect class="k" x="431.48" y="325.84" width="22.9" height="23.83"/><rect class="k" x="431.48" y="400.39" width="22.9" height="23.83"/><rect class="i" x="431.48" y="94.34" width="22.96" height="23.85"/><rect class="l" x="110.94" y="557.22" width="55.32" height="37.98"/><rect class="m" x="110.94" y="516.4" width="55.32" height="39.14"/><rect class="l" x="236.01" y="516.78" width="68.73" height="38.76"/><polygon class="m" points="304.74 557.22 236.14 557.22 236.14 589.55 229.38 589.55 229.38 595.36 304.98 595.36 304.74 557.22"/><path class="n" d="M246.52,598.52h66.16v16h-13v57h6.8v5.63h-60Z" transform="translate(-78.46 -81.98)"/><rect class="l" x="111.8" y="4.75" width="54.22" height="38.39"/><rect class="m" x="111.8" y="44.68" width="54.22" height="39.98"/><rect class="l" x="236.01" y="44.82" width="68.73" height="39.84"/><polygon class="m" points="304.74 43.02 235.9 43.02 235.9 9.02 228.06 9.02 228.23 4.02 304.91 4.02 304.74 43.02"/><polygon class="n" points="168.1 83.82 234.09 83.82 234.09 66.21 221.14 66.21 221.14 9.16 227.93 9.16 228 3.85 168.16 3.85 168.1 83.82"/></svg>