<svg xmlns="http://www.w3.org/2000/svg" viewBox="0 0 2669.28 1490.04"><defs><style>.a{fill:#ccc;opacity:0.5;}.b{fill:#7dbbd3;}.c{fill:#7d8fd1;}.d{fill:#7cceb7;}.e,.f,.g,.h,.i,.j,.k,.m{fill:none;stroke:#000;stroke-miterlimit:10;}.e{stroke-width:8px;}.f{stroke-width:16px;}.g{stroke-width:6px;}.i{stroke-width:15px;}.j{stroke-width:9px;}.k{stroke-width:2px;}.l{fill:#636;}.m{stroke-width:20px;}.n{fill:#069;}.o{fill:#003e99;}.p{fill:#039;}.q{fill:#099;}.r{fill:#066;}</style></defs><title>OWSP-GEN-101-S_zocalo_simplificado</title><rect class="a" x="918.28" y="1204.28" width="230.76" height="432.75" transform="translate(-772.04 2060.2) rotate(-90)"/><rect class="a" x="1994.4" y="727.08" width="231.02" height="429.72"/><path d="M2916.13,402.12l130.19,542.43v696.77H2898.84v234.84H541.46L503.57,1648l-1.11-6.69H393V874.45l449-88.69H1851.4V402.12H2916.13m6.31-8h-1079V777.76H841.28L385,867.88v781.44H495.68l39,234.84H2906.84V1649.32h147.48V943.6L2922.44,394.12Z" transform="translate(-385.04 -394.12)"/><polygon class="b" points="248.88 1334.52 248.88 1260.6 254.04 1260.6 254.04 1146.36 526.92 1145.04 526.92 1181.64 548.28 1181.64 548.28 1145.04 740.28 1145.04 740.4 1182.84 761.64 1182.84 761.64 1144.92 865.2 1145.04 865.2 1109.88 865.2 911.16 573.96 911.16 575.64 752.4 1044.96 751.8 1044.96 836.4 1160.76 836.88 1161.36 759.72 1123.24 617.17 1133.76 614.24 1116.3 550.22 1105.32 510.48 1118.04 507 1096.44 427.68 1096.44 390.36 1345.44 390.36 1434.96 723.6 1434.96 1184.84 1820.4 1184.84 1820.4 1218.49 2086.44 1218.49 2086.44 1338.36 1819.08 1338.36 1819.08 1259.28 1711.08 1259.28 1711.08 1482.84 1443.35 1482.84 1443.35 1355.02 1434.61 1355.02 1434.61 1482.84 1166.76 1482.84 1166.76 1259.4 1043.64 1259.4 1043.64 1338.48 248.88 1334.52"/><polygon class="b" points="2400.36 1334.52 2400.36 1260.6 2392.68 1260.6 2392.68 1151.16 2225.64 1151.16 2225.64 1160.04 2208.6 1160.04 2208.6 1334.52 2400.36 1334.52"/><polygon class="c" points="936.48 911.88 936.48 1109.88 865.2 1109.88 865.2 911.16 936.48 911.88"/><rect class="c" x="1868.4" y="695.64" width="108.6" height="483.6"/><polygon class="d" points="1443 1179.24 1868.4 1179.24 1868.4 695.64 1977 695.64 1976.88 539.76 1819.08 539.76 1819.08 623.76 1699.8 623.4 1699.8 693.24 1435.8 695.64 1443 723.6 1443 1179.24"/><line class="e" x1="2435.88" y1="729.9" x2="2669.28" y2="729.9"/><line class="e" x1="2392.41" y1="1115.16" x2="2392.41" y2="727.08"/><line class="e" x1="2225.42" y1="1115.16" x2="2225.42" y2="727.08"/><polyline class="f" points="2157.12 735.25 1986.78 735.25 1987.12 1150.05 2157.12 1151.01"/><line class="e" x1="1439.38" y1="1490.04" x2="1439.38" y2="1355.02"/><polyline class="e" points="1439.38 1184.52 1439.38 722.52 1349.13 387.45"/><line class="f" x1="440.23" y1="1092.36" x2="440.23" y2="911.16"/><polyline class="f" points="856.57 1091.16 856.57 920.36 856.57 920.19 465.6 920.53"/><line class="e" x1="254.04" y1="1110.36" x2="254.04" y2="725.64"/><line class="e" x1="420.36" y1="725.64" x2="420.36" y2="1111.14"/><polyline class="g" points="244.92 1257.56 252.74 1257.56 252.74 1142.66 424.56 1142.66"/><line class="g" x1="38.16" y1="672.7" y2="672.7"/><line class="g" x1="102.24" y1="672.7" x2="257.4" y2="672.7"/><line class="g" x1="254.04" y1="509.64" x2="254.04" y2="423.96"/><line class="g" x1="767.21" y1="553.45" x2="767.21" y2="383.64"/><polyline class="g" points="1121.04 614.04 1129.25 612.12 1113.59 554.58 476.65 554.58 476.65 754.41 571.29 754.41 571.29 920.19"/><line class="e" x1="1100.14" y1="506.88" x2="1100.14" y2="554.58"/><line class="h" x1="899.2" y1="610.01" x2="899.2" y2="558.49"/><line class="h" x1="907.57" y1="610.01" x2="907.57" y2="558.49"/><line class="h" x1="915.93" y1="610.01" x2="915.93" y2="558.49"/><line class="h" x1="924.3" y1="610.01" x2="924.3" y2="558.49"/><line class="h" x1="932.66" y1="610.01" x2="932.66" y2="558.49"/><line class="h" x1="941.03" y1="610.01" x2="941.03" y2="558.49"/><line class="h" x1="949.39" y1="610.01" x2="949.39" y2="558.49"/><line class="h" x1="957.75" y1="610.01" x2="957.75" y2="558.49"/><line class="h" x1="966.12" y1="610.01" x2="966.12" y2="558.49"/><line class="h" x1="974.48" y1="610.01" x2="974.48" y2="558.49"/><line class="h" x1="982.85" y1="610.01" x2="982.85" y2="558.49"/><line class="h" x1="991.21" y1="610.01" x2="991.21" y2="558.49"/><line class="h" x1="999.58" y1="610.01" x2="999.58" y2="558.49"/><line class="h" x1="1007.94" y1="610.01" x2="1007.94" y2="558.49"/><line class="h" x1="1016.31" y1="610.01" x2="1016.31" y2="558.49"/><line class="h" x1="1024.67" y1="610.01" x2="1024.67" y2="558.49"/><line class="h" x1="1033.04" y1="610.01" x2="1033.04" y2="558.49"/><line class="h" x1="1041.4" y1="610.01" x2="1041.4" y2="558.49"/><line class="h" x1="1049.77" y1="610.01" x2="1049.77" y2="558.49"/><line class="h" x1="1058.13" y1="610.01" x2="1058.13" y2="558.49"/><line class="h" x1="1066.5" y1="610.01" x2="1066.5" y2="558.49"/><line class="h" x1="1074.86" y1="610.01" x2="1074.86" y2="558.49"/><line class="h" x1="1083.23" y1="610.01" x2="1083.23" y2="558.49"/><line class="h" x1="1091.59" y1="610.01" x2="1091.59" y2="558.49"/><line class="h" x1="1099.96" y1="610.01" x2="1099.96" y2="558.49"/><line class="h" x1="1108.32" y1="610.01" x2="1108.32" y2="558.49"/><line class="h" x1="899.2" y1="558.49" x2="1108.32" y2="558.49"/><line class="h" x1="899.2" y1="610.01" x2="1108.32" y2="610.01"/><line class="h" x1="1617.66" y1="331.97" x2="1617.66" y2="280.45"/><line class="h" x1="1626.03" y1="331.97" x2="1626.03" y2="280.45"/><line class="h" x1="1634.39" y1="331.97" x2="1634.39" y2="280.45"/><line class="h" x1="1642.76" y1="331.97" x2="1642.76" y2="280.45"/><line class="h" x1="1651.12" y1="331.97" x2="1651.12" y2="280.45"/><line class="h" x1="1659.48" y1="331.97" x2="1659.48" y2="280.45"/><line class="h" x1="1667.85" y1="331.97" x2="1667.85" y2="280.45"/><line class="h" x1="1676.21" y1="331.97" x2="1676.21" y2="280.45"/><line class="h" x1="1684.58" y1="331.97" x2="1684.58" y2="280.45"/><line class="h" x1="1692.94" y1="331.97" x2="1692.94" y2="280.45"/><line class="h" x1="1701.31" y1="331.97" x2="1701.31" y2="280.45"/><line class="h" x1="1709.67" y1="331.97" x2="1709.67" y2="280.45"/><line class="h" x1="1718.04" y1="331.97" x2="1718.04" y2="280.45"/><line class="h" x1="1726.4" y1="331.97" x2="1726.4" y2="280.45"/><line class="h" x1="1734.77" y1="331.97" x2="1734.77" y2="280.45"/><line class="h" x1="1743.13" y1="331.97" x2="1743.13" y2="280.45"/><line class="h" x1="1751.5" y1="331.97" x2="1751.5" y2="280.45"/><line class="h" x1="1759.86" y1="331.97" x2="1759.86" y2="280.45"/><line class="h" x1="1768.23" y1="331.97" x2="1768.23" y2="280.45"/><line class="h" x1="1776.59" y1="331.97" x2="1776.59" y2="280.45"/><line class="h" x1="1784.96" y1="331.97" x2="1784.96" y2="280.45"/><line class="h" x1="1793.32" y1="331.97" x2="1793.32" y2="280.45"/><line class="h" x1="1801.69" y1="331.97" x2="1801.69" y2="280.45"/><line class="h" x1="1810.05" y1="331.97" x2="1810.05" y2="280.45"/><line class="h" x1="1818.41" y1="331.97" x2="1818.41" y2="280.45"/><line class="h" x1="1826.78" y1="331.97" x2="1826.78" y2="280.45"/><line class="h" x1="1617.66" y1="280.45" x2="1826.78" y2="280.45"/><line class="h" x1="1617.66" y1="331.97" x2="1826.78" y2="331.97"/><line class="i" x1="1070.78" y1="789.48" x2="1070.52" y2="714.96"/><polyline class="j" points="1623.52 335.35 1615.76 337.45 1597.67 275.43 1798.87 275.43 1798.87 0"/><polyline class="j" points="1977.25 541.64 2198.18 541.64 2198.18 276.11 1798.87 276.11"/><line class="j" x1="2218.2" y1="276.11" x2="2198.18" y2="276.11"/><polyline class="g" points="2404.44 1257.21 2394.65 1257.21 2394.65 1147.6 2223.89 1147.6 2223.89 1157.64 2208.6 1157.64"/><polyline class="j" points="2156.76 1088.62 2089.69 1088.62 2089.69 797.64 2156.76 797.64"/><line class="h" x1="1994.78" y1="883.51" x2="2037.5" y2="883.51"/><line class="h" x1="1994.78" y1="891.25" x2="2037.5" y2="891.25"/><line class="h" x1="1994.78" y1="898.98" x2="2037.5" y2="898.98"/><line class="h" x1="1994.78" y1="906.72" x2="2037.5" y2="906.72"/><line class="h" x1="1994.78" y1="914.45" x2="2037.5" y2="914.45"/><line class="h" x1="1994.78" y1="922.19" x2="2037.5" y2="922.19"/><line class="h" x1="1994.78" y1="929.92" x2="2037.5" y2="929.92"/><line class="h" x1="1994.78" y1="937.66" x2="2037.5" y2="937.66"/><line class="h" x1="1994.78" y1="945.4" x2="2037.5" y2="945.4"/><line class="h" x1="1994.78" y1="953.13" x2="2037.5" y2="953.13"/><line class="h" x1="1994.78" y1="960.87" x2="2037.5" y2="960.87"/><line class="h" x1="1994.78" y1="968.6" x2="2037.5" y2="968.6"/><line class="h" x1="1994.78" y1="976.34" x2="2037.5" y2="976.34"/><line class="h" x1="1994.78" y1="984.07" x2="2037.5" y2="984.07"/><line class="h" x1="2037.5" y1="883.51" x2="2037.5" y2="984.07"/><line class="h" x1="1994.78" y1="883.51" x2="1994.78" y2="984.07"/><line class="h" x1="2040.61" y1="893.96" x2="2083.33" y2="893.96"/><line class="h" x1="2040.61" y1="901.7" x2="2083.33" y2="901.7"/><line class="h" x1="2040.61" y1="909.43" x2="2083.33" y2="909.43"/><line class="h" x1="2040.61" y1="917.17" x2="2083.33" y2="917.17"/><line class="h" x1="2040.61" y1="924.9" x2="2083.33" y2="924.9"/><line class="h" x1="2040.61" y1="932.64" x2="2083.33" y2="932.64"/><line class="h" x1="2040.61" y1="940.37" x2="2083.33" y2="940.37"/><line class="h" x1="2040.61" y1="948.11" x2="2083.33" y2="948.11"/><line class="h" x1="2040.61" y1="955.84" x2="2083.33" y2="955.84"/><line class="h" x1="2040.61" y1="963.58" x2="2083.33" y2="963.58"/><line class="h" x1="2040.61" y1="971.32" x2="2083.33" y2="971.32"/><line class="h" x1="2040.61" y1="979.05" x2="2083.33" y2="979.05"/><line class="h" x1="2040.61" y1="986.79" x2="2083.33" y2="986.79"/><line class="h" x1="2040.61" y1="994.52" x2="2083.33" y2="994.52"/><line class="h" x1="2083.33" y1="893.96" x2="2083.33" y2="994.52"/><line class="h" x1="2040.61" y1="893.96" x2="2040.61" y2="994.52"/><rect class="k" x="2490.02" y="1428.1" width="44.04" height="43.44" transform="translate(677.18 3567.74) rotate(-90)"/><line class="k" x1="2105.28" y1="1077.72" x2="2148.72" y2="1033.68"/><line class="k" x1="2148.72" y1="1077.72" x2="2105.28" y2="1033.68"/><rect class="k" x="2490.02" y="1371.97" width="44.04" height="43.44" transform="translate(733.31 3511.61) rotate(-90)"/><line class="k" x1="2105.28" y1="1021.59" x2="2148.72" y2="977.55"/><line class="k" x1="2148.72" y1="1021.59" x2="2105.28" y2="977.55"/><rect class="k" x="2490.02" y="1315.96" width="44.04" height="43.44" transform="translate(789.32 3455.6) rotate(-90)"/><line class="k" x1="2105.28" y1="965.58" x2="2148.72" y2="921.54"/><line class="k" x1="2148.72" y1="965.58" x2="2105.28" y2="921.54"/><rect class="k" x="2490.02" y="1260.06" width="44.04" height="43.44" transform="translate(845.22 3399.7) rotate(-90)"/><line class="k" x1="2105.28" y1="909.68" x2="2148.72" y2="865.64"/><line class="k" x1="2148.72" y1="909.68" x2="2105.28" y2="865.64"/><rect class="k" x="2490.02" y="1203.97" width="44.04" height="43.44" transform="translate(901.31 3343.61) rotate(-90)"/><line class="k" x1="2105.28" y1="853.59" x2="2148.72" y2="809.55"/><line class="k" x1="2148.72" y1="853.59" x2="2105.28" y2="809.55"/><polyline class="j" points="503.06 1090.59 503.06 1023.52 794.04 1023.52 794.04 1090.59"/><line class="h" x1="708.17" y1="928.61" x2="708.17" y2="971.33"/><line class="h" x1="700.43" y1="928.61" x2="700.43" y2="971.33"/><line class="h" x1="692.7" y1="928.61" x2="692.7" y2="971.33"/><line class="h" x1="684.96" y1="928.61" x2="684.96" y2="971.33"/><line class="h" x1="677.23" y1="928.61" x2="677.23" y2="971.33"/><line class="h" x1="669.49" y1="928.61" x2="669.49" y2="971.33"/><line class="h" x1="661.76" y1="928.61" x2="661.76" y2="971.33"/><line class="h" x1="654.02" y1="928.61" x2="654.02" y2="971.33"/><line class="h" x1="646.29" y1="928.61" x2="646.29" y2="971.33"/><line class="h" x1="638.55" y1="928.61" x2="638.55" y2="971.33"/><line class="h" x1="630.82" y1="928.61" x2="630.82" y2="971.33"/><line class="h" x1="623.08" y1="928.61" x2="623.08" y2="971.33"/><line class="h" x1="615.34" y1="928.61" x2="615.34" y2="971.33"/><line class="h" x1="607.61" y1="928.61" x2="607.61" y2="971.33"/><line class="h" x1="708.17" y1="971.33" x2="607.61" y2="971.33"/><line class="h" x1="708.17" y1="928.61" x2="607.61" y2="928.61"/><line class="h" x1="697.72" y1="974.44" x2="697.72" y2="1017.16"/><line class="h" x1="689.98" y1="974.44" x2="689.98" y2="1017.16"/><line class="h" x1="682.25" y1="974.44" x2="682.25" y2="1017.16"/><line class="h" x1="674.51" y1="974.44" x2="674.51" y2="1017.16"/><line class="h" x1="666.78" y1="974.44" x2="666.78" y2="1017.16"/><line class="h" x1="659.04" y1="974.44" x2="659.04" y2="1017.16"/><line class="h" x1="651.31" y1="974.44" x2="651.31" y2="1017.16"/><line class="h" x1="643.57" y1="974.44" x2="643.57" y2="1017.16"/><line class="h" x1="635.84" y1="974.44" x2="635.84" y2="1017.16"/><line class="h" x1="628.1" y1="974.44" x2="628.1" y2="1017.16"/><line class="h" x1="620.37" y1="974.44" x2="620.37" y2="1017.16"/><line class="h" x1="612.63" y1="974.44" x2="612.63" y2="1017.16"/><line class="h" x1="604.9" y1="974.44" x2="604.9" y2="1017.16"/><line class="h" x1="597.16" y1="974.44" x2="597.16" y2="1017.16"/><line class="h" x1="697.72" y1="1017.16" x2="597.16" y2="1017.16"/><line class="h" x1="697.72" y1="974.44" x2="597.16" y2="974.44"/><rect class="k" x="513.96" y="1039.11" width="44.04" height="43.44"/><line class="k" x1="513.96" y1="1039.11" x2="558" y2="1082.55"/><line class="k" x1="513.96" y1="1082.55" x2="558" y2="1039.11"/><rect class="k" x="570.09" y="1039.11" width="44.04" height="43.44"/><line class="k" x1="570.09" y1="1039.11" x2="614.13" y2="1082.55"/><line class="k" x1="570.09" y1="1082.55" x2="614.13" y2="1039.11"/><rect class="k" x="626.1" y="1039.11" width="44.04" height="43.44"/><line class="k" x1="626.1" y1="1039.11" x2="670.14" y2="1082.55"/><line class="k" x1="626.1" y1="1082.55" x2="670.14" y2="1039.11"/><rect class="k" x="682" y="1039.11" width="44.04" height="43.44"/><line class="k" x1="682" y1="1039.11" x2="726.04" y2="1082.55"/><line class="k" x1="682" y1="1082.55" x2="726.04" y2="1039.11"/><rect class="k" x="738.09" y="1039.11" width="44.04" height="43.44"/><line class="k" x1="738.09" y1="1039.11" x2="782.13" y2="1082.55"/><line class="k" x1="738.09" y1="1082.55" x2="782.13" y2="1039.11"/><rect class="l" x="1142" y="800.01" width="158.59" height="130.5" transform="translate(-29.01 1692.44) rotate(-90)"/><rect class="l" x="1285.34" y="828.46" width="120.12" height="112.08" transform="translate(75.86 1835.78) rotate(-90)"/><rect class="l" x="1381.4" y="847.12" width="120.12" height="74.76" transform="translate(171.92 1931.84) rotate(-90)"/><rect class="l" x="1883.96" y="370" width="263.12" height="329.44" transform="translate(1095.76 2156.12) rotate(-90)"/><line class="i" x1="1071.55" y1="1376.64" x2="1071.55" y2="1302.24"/><line class="m" x1="750.72" y1="1141.44" x2="750.72" y2="1163.16"/><line class="m" x1="750.72" y1="1354.89" x2="750.72" y2="1376.61"/><line class="m" x1="537.62" y1="1354.89" x2="537.62" y2="1376.61"/><line class="m" x1="537.62" y1="1141.44" x2="537.62" y2="1163.16"/><line class="m" x1="537.62" y1="714.77" x2="537.62" y2="736.49"/><line class="m" x1="751.03" y1="714.77" x2="751.03" y2="736.49"/><line class="m" x1="1501.71" y1="467.56" x2="1494.78" y2="441.81"/><line class="m" x1="1780.92" y1="512.7" x2="1855.32" y2="512.7"/><line class="m" x1="2101.08" y1="512.7" x2="2122.44" y2="512.7"/><line class="m" x1="2368.08" y1="1365.96" x2="2442.6" y2="1365.96"/><line class="m" x1="2101.08" y1="1365.96" x2="2122.44" y2="1365.96"/><line class="m" x1="1780.92" y1="1365.96" x2="1855.32" y2="1365.96"/><line class="m" x1="2435.88" y1="1056.48" x2="2435.88" y2="1035.12"/><line class="m" x1="2216.91" y1="1056.48" x2="2216.91" y2="1035.12"/><line class="m" x1="2216.91" y1="843.28" x2="2216.91" y2="821.92"/><line class="m" x1="2435.88" y1="843.12" x2="2435.88" y2="821.76"/><line class="h" x1="2435.88" y1="727.08" x2="2435.88" y2="687"/><line class="h" x1="2443.15" y1="727.08" x2="2443.15" y2="687"/><line class="h" x1="2450.42" y1="727.08" x2="2450.42" y2="687"/><line class="h" x1="2457.7" y1="727.08" x2="2457.7" y2="687"/><line class="h" x1="2464.97" y1="727.08" x2="2464.97" y2="687"/><line class="h" x1="2472.24" y1="727.08" x2="2472.24" y2="687"/><line class="h" x1="2479.51" y1="727.08" x2="2479.51" y2="687"/><line class="h" x1="2486.78" y1="727.08" x2="2486.78" y2="687"/><line class="h" x1="2494.06" y1="727.08" x2="2494.06" y2="687"/><line class="h" x1="2501.33" y1="727.08" x2="2501.33" y2="687"/><line class="h" x1="2508.6" y1="727.08" x2="2508.6" y2="687"/><line class="h" x1="2515.87" y1="727.08" x2="2515.87" y2="687"/><line class="h" x1="2523.14" y1="727.08" x2="2523.14" y2="687"/><line class="h" x1="2530.42" y1="727.08" x2="2530.42" y2="687"/><line class="h" x1="2537.69" y1="727.08" x2="2537.69" y2="687"/><line class="h" x1="2544.96" y1="727.08" x2="2544.96" y2="687"/><line class="h" x1="2552.23" y1="727.08" x2="2552.23" y2="687"/><line class="h" x1="2559.5" y1="727.08" x2="2559.5" y2="687"/><line class="h" x1="2566.78" y1="727.08" x2="2566.78" y2="687"/><line class="h" x1="2574.05" y1="727.08" x2="2574.05" y2="687"/><line class="h" x1="2581.32" y1="727.08" x2="2581.32" y2="687"/><line class="h" x1="2588.59" y1="727.08" x2="2588.59" y2="687"/><line class="h" x1="2595.86" y1="727.08" x2="2595.86" y2="687"/><line class="h" x1="2603.14" y1="727.08" x2="2603.14" y2="687"/><line class="h" x1="2610.41" y1="727.08" x2="2610.41" y2="687"/><line class="h" x1="2617.68" y1="727.08" x2="2617.68" y2="687"/><line class="h" x1="2624.95" y1="727.08" x2="2624.95" y2="687"/><line class="h" x1="2632.22" y1="727.08" x2="2632.22" y2="687"/><line class="h" x1="2639.5" y1="727.08" x2="2639.5" y2="687"/><line class="h" x1="2646.77" y1="727.08" x2="2646.77" y2="687"/><line class="h" x1="2654.04" y1="727.08" x2="2654.04" y2="687"/><line class="h" x1="2661.31" y1="727.08" x2="2661.31" y2="687"/><line class="h" x1="2435.88" y1="687" x2="2661.31" y2="687"/><line class="h" x1="2435.88" y1="727.08" x2="2661.31" y2="727.08"/><line class="h" x1="2403.03" y1="566.91" x2="2403.03" y2="526.83"/><line class="h" x1="2411.23" y1="566.91" x2="2411.23" y2="526.83"/><line class="h" x1="2419.42" y1="566.91" x2="2419.42" y2="526.83"/><line class="h" x1="2427.62" y1="566.91" x2="2427.62" y2="526.83"/><line class="h" x1="2435.81" y1="566.91" x2="2435.81" y2="526.83"/><line class="h" x1="2444" y1="566.91" x2="2444" y2="526.83"/><line class="h" x1="2452.2" y1="566.91" x2="2452.2" y2="526.83"/><line class="h" x1="2460.39" y1="566.91" x2="2460.39" y2="526.83"/><line class="h" x1="2468.58" y1="566.91" x2="2468.58" y2="526.83"/><line class="h" x1="2476.78" y1="566.91" x2="2476.78" y2="526.83"/><line class="h" x1="2484.97" y1="566.91" x2="2484.97" y2="526.83"/><line class="h" x1="2493.17" y1="566.91" x2="2493.17" y2="526.83"/><line class="h" x1="2501.36" y1="566.91" x2="2501.36" y2="526.83"/><line class="h" x1="2509.55" y1="566.91" x2="2509.55" y2="526.83"/><line class="h" x1="2517.75" y1="566.91" x2="2517.75" y2="526.83"/><line class="h" x1="2525.94" y1="566.91" x2="2525.94" y2="526.83"/><line class="h" x1="2534.13" y1="566.91" x2="2534.13" y2="526.83"/><line class="h" x1="2542.33" y1="566.91" x2="2542.33" y2="526.83"/><line class="h" x1="2550.52" y1="566.91" x2="2550.52" y2="526.83"/><line class="h" x1="2558.72" y1="566.91" x2="2558.72" y2="526.83"/><line class="h" x1="2566.91" y1="566.91" x2="2566.91" y2="526.83"/><line class="h" x1="2575.1" y1="566.91" x2="2575.1" y2="526.83"/><line class="h" x1="2583.3" y1="566.91" x2="2583.3" y2="526.83"/><line class="h" x1="2591.49" y1="566.91" x2="2591.49" y2="526.83"/><line class="h" x1="2599.68" y1="566.91" x2="2599.68" y2="526.83"/><line class="h" x1="2607.88" y1="566.91" x2="2607.88" y2="526.83"/><line class="h" x1="2616.07" y1="566.91" x2="2616.07" y2="526.83"/><line class="h" x1="2624.27" y1="566.91" x2="2624.27" y2="526.83"/><line class="h" x1="2632.46" y1="566.91" x2="2632.46" y2="526.83"/><line class="h" x1="2640.65" y1="566.91" x2="2640.65" y2="526.83"/><line class="h" x1="2648.85" y1="566.91" x2="2648.85" y2="526.83"/><line class="h" x1="2657.04" y1="566.91" x2="2657.04" y2="526.83"/><line class="h" x1="2403.03" y1="526.83" x2="2657.04" y2="526.83"/><line class="h" x1="2403.03" y1="566.91" x2="2657.04" y2="566.91"/><line class="h" x1="2422.18" y1="647" x2="2422.18" y2="606.92"/><line class="h" x1="2429.9" y1="647" x2="2429.9" y2="606.92"/><line class="h" x1="2437.61" y1="647" x2="2437.61" y2="606.92"/><line class="h" x1="2445.33" y1="647" x2="2445.33" y2="606.92"/><line class="h" x1="2453.04" y1="647" x2="2453.04" y2="606.92"/><line class="h" x1="2460.75" y1="647" x2="2460.75" y2="606.92"/><line class="h" x1="2468.47" y1="647" x2="2468.47" y2="606.92"/><line class="h" x1="2476.18" y1="647" x2="2476.18" y2="606.92"/><line class="h" x1="2483.89" y1="647" x2="2483.89" y2="606.92"/><line class="h" x1="2491.61" y1="647" x2="2491.61" y2="606.92"/><line class="h" x1="2499.32" y1="647" x2="2499.32" y2="606.92"/><line class="h" x1="2507.04" y1="647" x2="2507.04" y2="606.92"/><line class="h" x1="2514.75" y1="647" x2="2514.75" y2="606.92"/><line class="h" x1="2522.46" y1="647" x2="2522.46" y2="606.92"/><line class="h" x1="2530.18" y1="647" x2="2530.18" y2="606.92"/><line class="h" x1="2537.89" y1="647" x2="2537.89" y2="606.92"/><line class="h" x1="2545.6" y1="647" x2="2545.6" y2="606.92"/><line class="h" x1="2553.32" y1="647" x2="2553.32" y2="606.92"/><line class="h" x1="2561.03" y1="647" x2="2561.03" y2="606.92"/><line class="h" x1="2568.75" y1="647" x2="2568.75" y2="606.92"/><line class="h" x1="2576.46" y1="647" x2="2576.46" y2="606.92"/><line class="h" x1="2584.17" y1="647" x2="2584.17" y2="606.92"/><line class="h" x1="2591.89" y1="647" x2="2591.89" y2="606.92"/><line class="h" x1="2599.6" y1="647" x2="2599.6" y2="606.92"/><line class="h" x1="2607.31" y1="647" x2="2607.31" y2="606.92"/><line class="h" x1="2615.03" y1="647" x2="2615.03" y2="606.92"/><line class="h" x1="2622.74" y1="647" x2="2622.74" y2="606.92"/><line class="h" x1="2630.46" y1="647" x2="2630.46" y2="606.92"/><line class="h" x1="2638.17" y1="647" x2="2638.17" y2="606.92"/><line class="h" x1="2645.88" y1="647" x2="2645.88" y2="606.92"/><line class="h" x1="2653.6" y1="647" x2="2653.6" y2="606.92"/><line class="h" x1="2661.31" y1="647" x2="2661.31" y2="606.92"/><line class="h" x1="2422.18" y1="606.92" x2="2661.31" y2="606.92"/><line class="h" x1="2422.18" y1="647" x2="2661.31" y2="647"/><line class="m" x1="2368.08" y1="512.7" x2="2442.6" y2="512.7"/><rect class="n" x="640.61" y="1540.48" width="35.89" height="35.89" transform="translate(-1284.91 1822.86) rotate(-90)"/><rect class="o" x="693.93" y="1540.48" width="35.89" height="35.89" transform="translate(-1231.59 1876.18) rotate(-90)"/><rect class="n" x="730.04" y="1540.48" width="35.89" height="35.89" transform="translate(-1195.48 1912.29) rotate(-90)"/><rect class="p" x="785.02" y="1540.24" width="35.89" height="36.38" transform="translate(-1140.5 1967.27) rotate(-90)"/><rect class="n" x="821.19" y="1540.48" width="35.89" height="35.89" transform="translate(-1104.33 2003.43) rotate(-90)"/><rect class="p" x="875.81" y="1540.48" width="35.89" height="35.89" transform="translate(-1049.71 2058.06) rotate(-90)"/><rect class="n" x="933.17" y="1539.95" width="36.52" height="35.64" transform="translate(-991.38 2115.08) rotate(-90)"/><rect class="p" x="984.74" y="1539.62" width="36.39" height="35.89" transform="translate(-939.68 2166.38) rotate(-90)"/><rect class="n" x="1037.35" y="1539.82" width="36.52" height="35.89" transform="translate(-887.2 2219.26) rotate(-90)"/><rect class="p" x="1088.27" y="1540.22" width="37.59" height="35.89" transform="translate(-836.14 2271.11) rotate(-90)"/><rect class="p" x="662.48" y="1625.08" width="34.68" height="32.04" transform="translate(-1346.32 1926.8) rotate(-90)"/><rect class="p" x="662.48" y="1694.44" width="34.68" height="32.04" transform="translate(-1415.68 1996.16) rotate(-90)"/><rect class="n" x="662.48" y="1659.76" width="34.68" height="32.04" transform="translate(-1381 1961.48) rotate(-90)"/><rect class="n" x="702.56" y="1625.08" width="34.68" height="32.04" transform="translate(-1306.24 1966.88) rotate(-90)"/><rect class="n" x="702.56" y="1694.44" width="34.68" height="32.04" transform="translate(-1375.6 2036.24) rotate(-90)"/><rect class="p" x="702.56" y="1659.76" width="34.68" height="32.04" transform="translate(-1340.92 2001.56) rotate(-90)"/><rect class="p" x="756.95" y="1625.08" width="34.68" height="32.04" transform="translate(-1251.85 2021.27) rotate(-90)"/><rect class="p" x="756.95" y="1694.44" width="34.68" height="32.04" transform="translate(-1321.21 2090.63) rotate(-90)"/><rect class="n" x="756.95" y="1659.76" width="34.68" height="32.04" transform="translate(-1286.53 2055.95) rotate(-90)"/><rect class="n" x="797.03" y="1625.08" width="34.68" height="32.04" transform="translate(-1211.77 2061.35) rotate(-90)"/><rect class="n" x="797.03" y="1694.44" width="34.68" height="32.04" transform="translate(-1281.13 2130.71) rotate(-90)"/><rect class="p" x="797.03" y="1659.76" width="34.68" height="32.04" transform="translate(-1246.45 2096.03) rotate(-90)"/><rect class="p" x="851.91" y="1625.08" width="34.68" height="32.04" transform="translate(-1156.89 2116.23) rotate(-90)"/><rect class="p" x="851.91" y="1694.44" width="34.68" height="32.04" transform="translate(-1226.25 2185.59) rotate(-90)"/><rect class="n" x="851.91" y="1659.76" width="34.68" height="32.04" transform="translate(-1191.57 2150.91) rotate(-90)"/><rect class="n" x="891.99" y="1625.08" width="34.68" height="32.04" transform="translate(-1116.81 2156.31) rotate(-90)"/><rect class="n" x="891.99" y="1694.44" width="34.68" height="32.04" transform="translate(-1186.17 2225.67) rotate(-90)"/><rect class="p" x="891.99" y="1659.76" width="34.68" height="32.04" transform="translate(-1151.49 2190.99) rotate(-90)"/><rect class="p" x="946.37" y="1625.08" width="34.68" height="32.04" transform="translate(-1062.42 2210.69) rotate(-90)"/><rect class="p" x="946.37" y="1694.44" width="34.68" height="32.04" transform="translate(-1131.78 2280.05) rotate(-90)"/><rect class="n" x="946.37" y="1659.76" width="34.68" height="32.04" transform="translate(-1097.1 2245.37) rotate(-90)"/><rect class="n" x="986.45" y="1625.08" width="34.68" height="32.04" transform="translate(-1022.35 2250.77) rotate(-90)"/><rect class="n" x="986.45" y="1694.44" width="34.68" height="32.04" transform="translate(-1091.71 2320.13) rotate(-90)"/><rect class="p" x="986.45" y="1659.76" width="34.68" height="32.04" transform="translate(-1057.03 2285.45) rotate(-90)"/><rect class="p" x="1041.35" y="1625.08" width="34.68" height="32.04" transform="translate(-967.45 2305.67) rotate(-90)"/><rect class="p" x="1041.35" y="1694.44" width="34.68" height="32.04" transform="translate(-1036.81 2375.03) rotate(-90)"/><rect class="n" x="1041.35" y="1659.76" width="34.68" height="32.04" transform="translate(-1002.13 2340.35) rotate(-90)"/><rect class="n" x="1081.43" y="1625.08" width="34.68" height="32.04" transform="translate(-927.37 2345.75) rotate(-90)"/><rect class="n" x="1081.43" y="1694.44" width="34.68" height="32.04" transform="translate(-996.73 2415.11) rotate(-90)"/><rect class="p" x="1081.43" y="1659.76" width="34.68" height="32.04" transform="translate(-962.05 2380.43) rotate(-90)"/><rect class="p" x="1135.99" y="1625.08" width="34.68" height="32.04" transform="translate(-872.81 2400.31) rotate(-90)"/><rect class="p" x="1135.99" y="1694.44" width="34.68" height="32.04" transform="translate(-942.17 2469.67) rotate(-90)"/><rect class="n" x="1135.99" y="1659.76" width="34.68" height="32.04" transform="translate(-907.49 2434.99) rotate(-90)"/><rect class="p" x="1232.69" y="1623.23" width="34.68" height="35.75" transform="translate(-776.11 2497.01) rotate(-90)"/><rect class="p" x="1232.69" y="1692.59" width="34.68" height="35.75" transform="translate(-845.47 2566.37) rotate(-90)"/><rect class="n" x="1232.69" y="1657.91" width="34.68" height="35.75" transform="translate(-810.79 2531.69) rotate(-90)"/><rect class="n" x="1176.07" y="1625.08" width="34.68" height="32.04" transform="translate(-832.73 2440.39) rotate(-90)"/><rect class="n" x="1176.07" y="1694.44" width="34.68" height="32.04" transform="translate(-902.09 2509.75) rotate(-90)"/><rect class="p" x="1176.07" y="1659.76" width="34.68" height="32.04" transform="translate(-867.41 2475.07) rotate(-90)"/><rect class="p" x="1284.26" y="1642.66" width="40.07" height="40.42" transform="translate(-743.62 2573.04) rotate(-90)"/><rect class="p" x="1371.32" y="1684.47" width="40.45" height="40.45" transform="translate(-698.19 2702.12) rotate(-90)"/><rect class="n" x="1284.08" y="1684.5" width="40.42" height="40.42" transform="translate(-785.46 2614.88) rotate(-90)"/><rect class="n" x="1371.32" y="1642.84" width="40.07" height="40.07" transform="translate(-656.56 2660.11) rotate(-90)"/><rect class="p" x="1346.84" y="1528" width="34.68" height="32.04" transform="translate(-564.88 2514.08) rotate(-90)"/><rect class="n" x="1386.75" y="1528" width="34.68" height="32.04" transform="translate(-524.97 2553.99) rotate(-90)"/><rect class="p" x="1386.75" y="1493.32" width="34.68" height="32.04" transform="translate(-490.29 2519.31) rotate(-90)"/><rect class="n" x="1346.84" y="1493.32" width="34.68" height="32.04" transform="translate(-530.2 2479.4) rotate(-90)"/><rect class="p" x="1346.84" y="1458.64" width="34.68" height="32.04" transform="translate(-495.52 2444.72) rotate(-90)"/><rect class="n" x="1386.75" y="1458.64" width="34.68" height="32.04" transform="translate(-455.61 2484.63) rotate(-90)"/><rect class="p" x="1386.75" y="1423.96" width="34.68" height="32.04" transform="translate(-420.93 2449.95) rotate(-90)"/><rect class="n" x="1346.84" y="1423.96" width="34.68" height="32.04" transform="translate(-460.84 2410.04) rotate(-90)"/><rect class="p" x="1346.84" y="1354.73" width="34.68" height="32.04" transform="translate(-391.61 2340.81) rotate(-90)"/><rect class="n" x="1386.75" y="1354.73" width="34.68" height="32.04" transform="translate(-351.69 2380.72) rotate(-90)"/><rect class="p" x="1386.75" y="1320.05" width="34.68" height="32.04" transform="translate(-317.01 2346.04) rotate(-90)"/><rect class="n" x="1346.84" y="1320.05" width="34.68" height="32.04" transform="translate(-356.93 2306.13) rotate(-90)"/><rect class="p" x="1442.84" y="1354.73" width="34.68" height="32.04" transform="translate(-295.61 2436.81) rotate(-90)"/><rect class="n" x="1482.75" y="1354.73" width="34.68" height="32.04" transform="translate(-255.69 2476.72) rotate(-90)"/><rect class="p" x="1482.75" y="1320.05" width="34.68" height="32.04" transform="translate(-221.01 2442.04) rotate(-90)"/><rect class="n" x="1442.84" y="1320.05" width="34.68" height="32.04" transform="translate(-260.93 2402.13) rotate(-90)"/><rect class="p" x="1538.84" y="1354.73" width="34.68" height="32.04" transform="translate(-199.61 2532.81) rotate(-90)"/><rect class="n" x="1578.75" y="1354.73" width="34.68" height="32.04" transform="translate(-159.69 2572.72) rotate(-90)"/><rect class="p" x="1578.75" y="1320.05" width="34.68" height="32.04" transform="translate(-125.01 2538.04) rotate(-90)"/><rect class="n" x="1538.84" y="1320.05" width="34.68" height="32.04" transform="translate(-164.93 2498.13) rotate(-90)"/><rect class="p" x="1538.84" y="1528" width="34.68" height="32.04" transform="translate(-372.88 2706.08) rotate(-90)"/><rect class="n" x="1578.75" y="1528" width="34.68" height="32.04" transform="translate(-332.97 2745.99) rotate(-90)"/><rect class="p" x="1578.75" y="1493.32" width="34.68" height="32.04" transform="translate(-298.29 2711.31) rotate(-90)"/><rect class="n" x="1538.84" y="1493.32" width="34.68" height="32.04" transform="translate(-338.2 2671.4) rotate(-90)"/><rect class="p" x="1538.84" y="1458.64" width="34.68" height="32.04" transform="translate(-303.52 2636.72) rotate(-90)"/><rect class="n" x="1578.75" y="1458.64" width="34.68" height="32.04" transform="translate(-263.61 2676.63) rotate(-90)"/><rect class="p" x="1578.75" y="1423.96" width="34.68" height="32.04" transform="translate(-228.93 2641.95) rotate(-90)"/><rect class="n" x="1538.84" y="1423.96" width="34.68" height="32.04" transform="translate(-268.84 2602.04) rotate(-90)"/><rect class="p" x="1574.63" y="1733.43" width="34.68" height="32.04" transform="translate(-542.52 2947.29) rotate(-90)"/><rect class="n" x="1614.54" y="1733.43" width="34.68" height="32.04" transform="translate(-502.6 2987.21) rotate(-90)"/><rect class="p" x="1614.54" y="1698.75" width="34.68" height="32.04" transform="translate(-467.92 2952.53) rotate(-90)"/><rect class="n" x="1574.63" y="1698.75" width="34.68" height="32.04" transform="translate(-507.84 2912.61) rotate(-90)"/><rect class="p" x="1574.63" y="1664.07" width="34.68" height="32.04" transform="translate(-473.16 2877.93) rotate(-90)"/><rect class="n" x="1614.54" y="1664.07" width="34.68" height="32.04" transform="translate(-433.24 2917.85) rotate(-90)"/><rect class="p" x="1614.54" y="1629.39" width="34.68" height="32.04" transform="translate(-398.56 2883.17) rotate(-90)"/><rect class="n" x="1574.63" y="1629.39" width="34.68" height="32.04" transform="translate(-438.48 2843.25) rotate(-90)"/><rect class="p" x="1718.5" y="1698.75" width="34.68" height="32.04" transform="translate(-363.97 3056.48) rotate(-90)"/><rect class="n" x="1678.58" y="1698.75" width="34.68" height="32.04" transform="translate(-403.88 3016.57) rotate(-90)"/><rect class="p" x="1678.58" y="1664.07" width="34.68" height="32.04" transform="translate(-369.2 2981.89) rotate(-90)"/><rect class="n" x="1718.5" y="1664.07" width="34.68" height="32.04" transform="translate(-329.29 3021.8) rotate(-90)"/><rect class="n" x="1718.63" y="1836.72" width="34.68" height="32.04" transform="translate(-501.81 3194.58) rotate(-90)"/><rect class="p" x="1678.71" y="1836.72" width="34.68" height="32.04" transform="translate(-541.73 3154.67) rotate(-90)"/><rect class="n" x="1678.71" y="1802.04" width="34.68" height="32.04" transform="translate(-507.05 3119.99) rotate(-90)"/><rect class="p" x="1718.63" y="1802.04" width="34.68" height="32.04" transform="translate(-467.13 3159.9) rotate(-90)"/><rect class="n" x="1614.48" y="1836.72" width="34.68" height="32.04" transform="translate(-605.96 3090.43) rotate(-90)"/><rect class="p" x="1574.56" y="1836.72" width="34.68" height="32.04" transform="translate(-645.88 3050.52) rotate(-90)"/><rect class="n" x="1574.56" y="1802.04" width="34.68" height="32.04" transform="translate(-611.2 3015.84) rotate(-90)"/><rect class="p" x="1614.48" y="1802.04" width="34.68" height="32.04" transform="translate(-571.28 3055.75) rotate(-90)"/><rect class="p" x="1718.5" y="1629.39" width="34.68" height="32.04" transform="translate(-294.61 2987.12) rotate(-90)"/><rect class="n" x="1678.58" y="1629.39" width="34.68" height="32.04" transform="translate(-334.52 2947.21) rotate(-90)"/><rect class="p" x="1828.56" y="1696.84" width="34.68" height="35.84" transform="translate(-253.91 3166.54) rotate(-90)"/><rect class="n" x="1784.77" y="1696.82" width="34.68" height="35.9" transform="translate(-297.7 3122.76) rotate(-90)"/><rect class="p" x="1784.77" y="1662.14" width="34.68" height="35.9" transform="translate(-263.02 3088.08) rotate(-90)"/><rect class="n" x="1828.56" y="1662.16" width="34.68" height="35.84" transform="translate(-219.23 3131.86) rotate(-90)"/><rect class="p" x="1828.56" y="1627.48" width="34.68" height="35.84" transform="translate(-184.55 3097.18) rotate(-90)"/><rect class="n" x="1784.77" y="1627.46" width="34.68" height="35.9" transform="translate(-228.34 3053.4) rotate(-90)"/><rect class="p" x="1936.56" y="1696.84" width="34.68" height="35.84" transform="translate(-145.91 3274.54) rotate(-90)"/><rect class="n" x="1892.77" y="1696.82" width="34.68" height="35.9" transform="translate(-189.7 3230.76) rotate(-90)"/><rect class="p" x="1892.77" y="1662.14" width="34.68" height="35.9" transform="translate(-155.02 3196.08) rotate(-90)"/><rect class="n" x="1936.56" y="1662.16" width="34.68" height="35.84" transform="translate(-111.23 3239.86) rotate(-90)"/><rect class="p" x="1936.56" y="1627.48" width="34.68" height="35.84" transform="translate(-76.55 3205.18) rotate(-90)"/><rect class="n" x="1892.77" y="1627.46" width="34.68" height="35.9" transform="translate(-120.34 3161.4) rotate(-90)"/><rect class="n" x="1784.77" y="1835.58" width="34.68" height="35.9" transform="translate(-436.46 3261.52) rotate(-90)"/><rect class="p" x="1784.77" y="1800.9" width="34.68" height="35.9" transform="translate(-401.78 3226.84) rotate(-90)"/><rect class="n" x="1784.77" y="1766.22" width="34.68" height="35.9" transform="translate(-367.1 3192.16) rotate(-90)"/><rect class="p" x="1784.77" y="1731.52" width="34.68" height="35.9" transform="translate(-332.4 3157.46) rotate(-90)"/><rect class="p" x="1828.56" y="1835.58" width="34.68" height="35.9" transform="translate(-392.67 3305.31) rotate(-90)"/><rect class="n" x="1828.56" y="1800.9" width="34.68" height="35.9" transform="translate(-357.99 3270.63) rotate(-90)"/><rect class="n" x="1896.74" y="1830.82" width="34.68" height="35.9" transform="translate(-319.72 3368.73) rotate(-90)"/><rect class="p" x="1896.74" y="1796.14" width="34.68" height="35.9" transform="translate(-285.04 3334.05) rotate(-90)"/><rect class="p" x="1940.53" y="1830.82" width="34.68" height="35.9" transform="translate(-275.93 3412.52) rotate(-90)"/><rect class="n" x="1940.53" y="1796.14" width="34.68" height="35.9" transform="translate(-241.25 3377.84) rotate(-90)"/><rect class="n" x="1996.86" y="1830.82" width="34.68" height="35.9" transform="translate(-219.61 3468.84) rotate(-90)"/><rect class="p" x="1996.86" y="1796.14" width="34.68" height="35.9" transform="translate(-184.93 3434.16) rotate(-90)"/><rect class="p" x="2040.64" y="1830.82" width="34.68" height="35.9" transform="translate(-175.82 3512.63) rotate(-90)"/><rect class="n" x="2040.64" y="1796.14" width="34.68" height="35.9" transform="translate(-141.14 3477.95) rotate(-90)"/><rect class="p" x="1828.56" y="1766.22" width="34.68" height="35.9" transform="translate(-323.31 3235.95) rotate(-90)"/><rect class="n" x="1828.56" y="1731.52" width="34.68" height="35.9" transform="translate(-288.61 3201.25) rotate(-90)"/><rect class="p" x="2040.64" y="1696.84" width="34.68" height="35.84" transform="translate(-41.82 3378.63) rotate(-90)"/><rect class="n" x="1996.86" y="1696.82" width="34.68" height="35.9" transform="translate(-85.61 3334.84) rotate(-90)"/><rect class="p" x="1996.86" y="1662.14" width="34.68" height="35.9" transform="translate(-50.93 3300.16) rotate(-90)"/><rect class="n" x="2040.64" y="1662.16" width="34.68" height="35.84" transform="translate(-7.14 3343.95) rotate(-90)"/><rect class="p" x="2040.64" y="1627.48" width="34.68" height="35.84" transform="translate(27.54 3309.27) rotate(-90)"/><rect class="n" x="1996.86" y="1627.46" width="34.68" height="35.9" transform="translate(-16.25 3265.48) rotate(-90)"/><rect class="p" x="1996.86" y="1731.52" width="34.68" height="35.9" transform="translate(-120.31 3369.54) rotate(-90)"/><rect class="n" x="2040.64" y="1731.52" width="34.68" height="35.9" transform="translate(-76.52 3413.33) rotate(-90)"/><rect class="p" x="1442.84" y="1528" width="34.68" height="32.04" transform="translate(-468.88 2610.08) rotate(-90)"/><rect class="n" x="1482.75" y="1528" width="34.68" height="32.04" transform="translate(-428.97 2649.99) rotate(-90)"/><rect class="p" x="1482.75" y="1493.32" width="34.68" height="32.04" transform="translate(-394.29 2615.31) rotate(-90)"/><rect class="n" x="1442.84" y="1493.32" width="34.68" height="32.04" transform="translate(-434.2 2575.4) rotate(-90)"/><rect class="p" x="1442.84" y="1458.64" width="34.68" height="32.04" transform="translate(-399.52 2540.72) rotate(-90)"/><rect class="n" x="1482.75" y="1458.64" width="34.68" height="32.04" transform="translate(-359.61 2580.63) rotate(-90)"/><rect class="p" x="1482.75" y="1423.96" width="34.68" height="32.04" transform="translate(-324.93 2545.95) rotate(-90)"/><rect class="p" x="959.88" y="1187.17" width="34.6" height="35.78" transform="translate(-612.92 1788.12) rotate(-90)"/><rect class="n" x="959.88" y="1152.57" width="34.6" height="35.78" transform="translate(-578.32 1753.52) rotate(-90)"/><rect class="n" x="1023.16" y="1189.08" width="34.6" height="31.96" transform="translate(-549.64 1851.4) rotate(-90)"/><rect class="p" x="1023.16" y="1154.48" width="34.6" height="31.96" transform="translate(-515.04 1816.8) rotate(-90)"/><rect class="p" x="1063.12" y="1189.08" width="34.6" height="31.96" transform="translate(-509.68 1891.36) rotate(-90)"/><rect class="n" x="1063.12" y="1154.48" width="34.6" height="31.96" transform="translate(-475.08 1856.76) rotate(-90)"/><rect class="n" x="1124.63" y="1189.09" width="34.6" height="31.96" transform="translate(-448.18 1952.88) rotate(-90)"/><rect class="p" x="1124.63" y="1154.49" width="34.6" height="31.96" transform="translate(-413.58 1918.28) rotate(-90)"/><rect class="p" x="1164.58" y="1189.09" width="34.6" height="31.96" transform="translate(-408.23 1992.84) rotate(-90)"/><rect class="n" x="1164.58" y="1154.49" width="34.6" height="31.96" transform="translate(-373.63 1958.24) rotate(-90)"/><rect class="p" x="1124.63" y="1223.69" width="34.6" height="31.96" transform="translate(-482.78 1987.48) rotate(-90)"/><rect class="n" x="1164.58" y="1223.69" width="34.6" height="31.96" transform="translate(-442.83 2027.44) rotate(-90)"/><rect class="p" x="1265.9" y="1189.04" width="34.69" height="31.96" transform="translate(-306.82 2094.15) rotate(-90)"/><rect class="n" x="1265.93" y="1154.38" width="34.64" height="31.96" transform="translate(-272.15 2059.49) rotate(-90)"/><rect class="n" x="1265.95" y="1223.69" width="34.6" height="31.96" transform="translate(-341.46 2128.8) rotate(-90)"/><rect class="n" x="1225.82" y="1189.04" width="34.69" height="31.96" transform="translate(-346.9 2054.07) rotate(-90)"/><rect class="p" x="1225.84" y="1154.38" width="34.64" height="31.96" transform="translate(-312.24 2019.4) rotate(-90)"/><rect class="p" x="1225.86" y="1223.69" width="34.6" height="31.96" transform="translate(-381.55 2088.71) rotate(-90)"/><rect class="p" x="1367.18" y="1189.04" width="34.69" height="31.96" transform="translate(-205.54 2195.43) rotate(-90)"/><rect class="n" x="1367.2" y="1154.38" width="34.64" height="31.96" transform="translate(-170.88 2160.76) rotate(-90)"/><rect class="n" x="1367.22" y="1223.69" width="34.6" height="31.96" transform="translate(-240.19 2230.07) rotate(-90)"/><rect class="n" x="1327.09" y="1189.04" width="34.69" height="31.96" transform="translate(-245.63 2155.34) rotate(-90)"/><rect class="p" x="1327.12" y="1154.38" width="34.64" height="31.96" transform="translate(-210.96 2120.68) rotate(-90)"/><rect class="p" x="1327.14" y="1223.69" width="34.6" height="31.96" transform="translate(-280.27 2189.99) rotate(-90)"/><rect class="p" x="1698.59" y="1481.41" width="29.28" height="34.62" transform="translate(-170.53 2817.83) rotate(-90)"/><rect class="n" x="1698.59" y="1452.13" width="29.28" height="34.62" transform="translate(-141.25 2788.55) rotate(-90)"/><rect class="n" x="1733.22" y="1481.41" width="29.28" height="34.62" transform="translate(-135.9 2852.45) rotate(-90)"/><rect class="p" x="1733.22" y="1452.13" width="29.28" height="34.62" transform="translate(-106.63 2823.18) rotate(-90)"/><rect class="p" x="1767.84" y="1481.41" width="29.28" height="34.62" transform="translate(-101.28 2887.08) rotate(-90)"/><rect class="n" x="1767.84" y="1452.13" width="29.28" height="34.62" transform="translate(-72 2857.8) rotate(-90)"/><rect class="p" x="1698.59" y="1395.75" width="29.28" height="34.62" transform="translate(-84.87 2732.17) rotate(-90)"/><rect class="n" x="1698.59" y="1366.47" width="29.28" height="34.62" transform="translate(-55.59 2702.89) rotate(-90)"/><rect class="n" x="1733.22" y="1395.75" width="29.28" height="34.62" transform="translate(-50.24 2766.79) rotate(-90)"/><rect class="p" x="1733.22" y="1366.47" width="29.28" height="34.62" transform="translate(-20.97 2737.52) rotate(-90)"/><rect class="p" x="1767.84" y="1395.75" width="29.28" height="34.62" transform="translate(-15.62 2801.42) rotate(-90)"/><rect class="n" x="1767.84" y="1366.47" width="29.28" height="34.62" transform="translate(13.65 2772.14) rotate(-90)"/><rect class="p" x="1717.18" y="1254.5" width="31.94" height="34.62" transform="translate(76.3 2610.84) rotate(-90)"/><rect class="n" x="1717.16" y="1214.63" width="31.97" height="34.62" transform="translate(116.17 2570.96) rotate(-90)"/><rect class="n" x="1751.8" y="1254.5" width="31.94" height="34.62" transform="translate(110.92 2645.46) rotate(-90)"/><rect class="p" x="1751.79" y="1214.63" width="31.97" height="34.62" transform="translate(150.79 2605.59) rotate(-90)"/><rect class="p" x="1786.42" y="1254.5" width="31.94" height="34.62" transform="translate(145.54 2680.08) rotate(-90)"/><rect class="n" x="1786.41" y="1214.63" width="31.97" height="34.62" transform="translate(185.42 2640.21) rotate(-90)"/><rect class="n" x="1566.61" y="1211.14" width="31.94" height="34.62" transform="translate(-30.92 2416.91) rotate(-90)"/><rect class="p" x="1566.59" y="1171.27" width="31.97" height="34.62" transform="translate(8.96 2377.04) rotate(-90)"/><rect class="p" x="1601.23" y="1211.14" width="31.94" height="34.62" transform="translate(3.71 2451.54) rotate(-90)"/><rect class="n" x="1601.22" y="1171.27" width="31.97" height="34.62" transform="translate(43.58 2411.66) rotate(-90)"/><rect class="p" x="1717.18" y="1155.95" width="31.94" height="34.62" transform="translate(174.85 2512.28) rotate(-90)"/><rect class="n" x="1717.16" y="1116.07" width="31.97" height="34.62" transform="translate(214.72 2472.41) rotate(-90)"/><rect class="n" x="1751.8" y="1155.95" width="31.94" height="34.62" transform="translate(209.47 2546.91) rotate(-90)"/><rect class="p" x="1751.79" y="1116.07" width="31.97" height="34.62" transform="translate(249.35 2507.03) rotate(-90)"/><rect class="p" x="1786.42" y="1155.95" width="31.94" height="34.62" transform="translate(244.09 2581.53) rotate(-90)"/><rect class="n" x="1786.41" y="1116.07" width="31.97" height="34.62" transform="translate(283.97 2541.66) rotate(-90)"/><rect class="p" x="1694.44" y="1027.07" width="31.94" height="34.62" transform="translate(755.86 2571.69) rotate(-104.9)"/><rect class="n" x="1684.18" y="988.53" width="31.97" height="34.62" transform="translate(780.21 2513.34) rotate(-104.9)"/><rect class="n" x="1727.9" y="1018.16" width="31.94" height="34.62" transform="translate(806.53 2592.83) rotate(-104.9)"/><rect class="p" x="1717.63" y="979.63" width="31.97" height="34.62" transform="translate(830.88 2534.48) rotate(-104.9)"/><rect class="p" x="1761.36" y="1009.26" width="31.94" height="34.62" transform="translate(857.19 2613.97) rotate(-104.9)"/><rect class="n" x="1751.09" y="970.73" width="31.97" height="34.62" transform="translate(881.54 2555.63) rotate(-104.9)"/><rect class="n" x="1564.25" y="1123.81" width="31.94" height="34.62" transform="translate(498.7 2567.49) rotate(-104.9)"/><rect class="p" x="1553.98" y="1085.28" width="31.97" height="34.62" transform="translate(523.05 2509.14) rotate(-104.9)"/><rect class="p" x="1597.71" y="1114.91" width="31.94" height="34.62" transform="translate(549.37 2588.63) rotate(-104.9)"/><rect class="n" x="1587.44" y="1076.38" width="31.97" height="34.62" transform="matrix(-0.26, -0.97, 0.97, -0.26, 573.72, 2530.29)"/><rect class="n" x="1540.76" y="1036.37" width="31.94" height="34.62" transform="matrix(-0.26, -0.97, 0.97, -0.26, 553.68, 2434.86)"/><rect class="p" x="1530.49" y="997.83" width="31.97" height="34.62" transform="translate(578.03 2376.51) rotate(-104.9)"/><rect class="p" x="1574.22" y="1027.46" width="31.94" height="34.62" transform="translate(604.34 2456) rotate(-104.9)"/><rect class="n" x="1563.95" y="988.93" width="31.97" height="34.62" transform="translate(628.69 2397.66) rotate(-104.9)"/><rect class="n" x="1517.46" y="948.6" width="31.94" height="34.62" transform="translate(609.21 2302.02) rotate(-104.9)"/><rect class="p" x="1507.19" y="910.07" width="31.97" height="34.62" transform="translate(633.56 2243.67) rotate(-104.9)"/><rect class="p" x="1550.92" y="939.7" width="31.94" height="34.62" transform="translate(659.87 2323.16) rotate(-104.9)"/><rect class="n" x="1540.65" y="901.16" width="31.97" height="34.62" transform="translate(684.22 2264.81) rotate(-104.9)"/><rect class="p" x="1617.08" y="850.9" width="31.94" height="34.62" transform="matrix(-0.26, -0.97, 0.97, -0.26, 828.86, 2275.46)"/><rect class="n" x="1606.81" y="812.36" width="31.97" height="34.62" transform="matrix(-0.26, -0.97, 0.97, -0.26, 853.21, 2217.11)"/><rect class="n" x="1650.54" y="841.99" width="31.94" height="34.62" transform="matrix(-0.26, -0.97, 0.97, -0.26, 879.52, 2296.6)"/><rect class="p" x="1640.27" y="803.46" width="31.97" height="34.62" transform="translate(903.87 2238.26) rotate(-104.9)"/><rect class="p" x="1684" y="833.09" width="31.94" height="34.62" transform="translate(930.19 2317.75) rotate(-104.9)"/><rect class="n" x="1673.73" y="794.56" width="31.97" height="34.62" transform="translate(954.54 2259.4) rotate(-104.9)"/><rect class="n" x="1700.3" y="915.27" width="31.94" height="34.62" transform="translate(871.27 2436.81) rotate(-104.9)"/><rect class="p" x="1690.04" y="876.74" width="31.97" height="34.62" transform="translate(895.62 2378.47) rotate(-104.9)"/><rect class="p" x="1733.76" y="906.37" width="31.94" height="34.62" transform="matrix(-0.26, -0.97, 0.97, -0.26, 921.93, 2457.96)"/><rect class="n" x="1723.5" y="867.84" width="31.97" height="34.62" transform="translate(946.29 2399.61) rotate(-104.9)"/><rect class="n" x="2208.61" y="1693.43" width="34.68" height="35.74" transform="translate(129.61 3543.13) rotate(-90)"/><rect class="p" x="2208.61" y="1658.75" width="34.68" height="35.74" transform="translate(164.29 3508.45) rotate(-90)"/><rect class="p" x="2272.13" y="1695.25" width="34.68" height="32.1" transform="translate(193.13 3606.65) rotate(-90)"/><rect class="n" x="2272.13" y="1660.57" width="34.68" height="32.1" transform="translate(227.81 3571.97) rotate(-90)"/><rect class="n" x="2312.18" y="1695.35" width="34.68" height="31.91" transform="translate(233.18 3646.7) rotate(-90)"/><rect class="p" x="2312.18" y="1660.67" width="34.68" height="31.91" transform="translate(267.86 3612.02) rotate(-90)"/><rect class="p" x="2373.47" y="1695.25" width="34.68" height="32.1" transform="translate(294.47 3707.99) rotate(-90)"/><rect class="n" x="2373.47" y="1660.57" width="34.68" height="32.1" transform="translate(329.15 3673.31) rotate(-90)"/><rect class="n" x="2413.53" y="1695.35" width="34.68" height="31.91" transform="translate(334.53 3748.05) rotate(-90)"/><rect class="p" x="2413.53" y="1660.67" width="34.68" height="31.91" transform="translate(369.21 3713.37) rotate(-90)"/><rect class="p" x="2641.77" y="1542.81" width="29.07" height="34.61" transform="translate(711.15 3822.3) rotate(-90)"/><rect class="n" x="2676.38" y="1542.81" width="29.07" height="34.61" transform="translate(745.76 3856.91) rotate(-90)"/><rect class="p" x="2710.99" y="1542.81" width="29.07" height="34.61" transform="translate(780.37 3891.53) rotate(-90)"/><rect class="n" x="2745.6" y="1542.81" width="29.07" height="34.61" transform="translate(814.99 3926.14) rotate(-90)"/><rect class="n" x="2649.56" y="1696.67" width="29.07" height="34.61" transform="translate(565.08 3983.95) rotate(-90)"/><rect class="p" x="2684.17" y="1696.67" width="29.07" height="34.61" transform="translate(599.69 4018.56) rotate(-90)"/><rect class="n" x="2718.78" y="1696.67" width="29.07" height="34.61" transform="translate(634.3 4053.18) rotate(-90)"/><rect class="p" x="2753.39" y="1696.67" width="29.07" height="34.61" transform="translate(668.91 4087.79) rotate(-90)"/><rect class="n" x="2678.21" y="1636.34" width="25.42" height="34.61" transform="translate(652.23 3950.45) rotate(-90)"/><rect class="p" x="2712.82" y="1636.34" width="25.42" height="34.61" transform="translate(686.84 3985.06) rotate(-90)"/><rect class="n" x="2747.43" y="1636.34" width="25.42" height="34.61" transform="translate(721.45 4019.67) rotate(-90)"/><rect class="p" x="2678.21" y="1602.98" width="25.42" height="34.61" transform="translate(685.59 3917.09) rotate(-90)"/><rect class="n" x="2712.82" y="1602.98" width="25.42" height="34.61" transform="translate(720.2 3951.7) rotate(-90)"/><rect class="p" x="2747.43" y="1602.98" width="25.42" height="34.61" transform="translate(754.81 3986.31) rotate(-90)"/><polygon class="q" points="1576.44 793.68 1576.44 698.4 1436.52 698.4 1443 722.52 1443 793.68 1576.44 793.68"/><rect class="r" x="1848.2" y="1170.4" width="93.36" height="133.68" transform="translate(272.6 2738) rotate(-90)"/><rect class="q" x="1848.2" y="1266.4" width="93.36" height="133.68" transform="translate(176.6 2834) rotate(-90)"/><rect class="r" x="1848.2" y="1362.14" width="93.36" height="133.68" transform="translate(80.86 2929.74) rotate(-90)"/><rect class="q" x="1848.84" y="1457.84" width="92.07" height="133.68" transform="translate(-14.84 3025.44) rotate(-90)"/><rect class="r" x="2164.28" y="1481.56" width="92.16" height="86.16" transform="translate(300.68 3340.88) rotate(-90)"/><rect class="q" x="2163.6" y="1386.24" width="93.52" height="86.16" transform="translate(396 3245.56) rotate(-90)"/><rect class="r" x="2163.8" y="1290.28" width="93.36" height="85.92" transform="translate(492.2 3149.6) rotate(-90)"/><rect class="q" x="2163.44" y="1193.92" width="93.36" height="86.64" transform="translate(587.84 3053.24) rotate(-90)"/><rect class="r" x="2162.66" y="1097.02" width="95.28" height="86.28" transform="translate(685.1 2956.34) rotate(-90)"/><polygon class="q" points="1823.04 543.72 1823.04 645 1950.84 645 1950.84 637.56 1977 637.56 1977 543.72 1823.04 543.72"/><rect class="r" x="2057.96" y="1112.44" width="83.76" height="57.6" transform="translate(573.56 2846.96) rotate(-90)"/><rect class="q" x="1988.36" y="1112.44" width="83.76" height="57.6" transform="translate(503.96 2777.36) rotate(-90)"/><rect class="r" x="1988.18" y="1208.38" width="84.12" height="57.6" transform="translate(408.02 2873.3) rotate(-90)"/><rect class="q" x="2057.9" y="1208.26" width="83.88" height="57.6" transform="translate(477.74 2942.78) rotate(-90)"/><rect class="q" x="1988.24" y="1400.44" width="84" height="57.6" transform="translate(215.96 3065.36) rotate(-90)"/><rect class="r" x="2057.9" y="1400.38" width="83.88" height="57.6" transform="translate(285.62 3134.9) rotate(-90)"/><rect class="r" x="1991.18" y="1493.5" width="78.12" height="57.6" transform="translate(122.9 3158.42) rotate(-90)"/><rect class="q" x="2060.78" y="1493.5" width="78.12" height="57.6" transform="translate(192.5 3228.02) rotate(-90)"/></svg>