<svg xmlns="http://www.w3.org/2000/svg" viewBox="0 0 827.12 584.6"><defs><style>.cls-1{fill:#1e252b;}.cls-2{fill:none;stroke:#000;stroke-miterlimit:10;}.cls-3{fill:#667c90;}.cls-4{fill:#333e48;}.cls-5{fill:#b3d6ec;}.cls-6{fill:#d8e6f0;}.cls-7{fill:#f9423a;}.cls-8{fill:#a2cae6;}</style></defs><title>WSP_PM_piso15_minimal</title><g id="estructura"><rect class="cls-1" x="733.97" y="274.52" width="25.55" height="25.67"/><rect class="cls-1" x="506.74" y="274.52" width="25.55" height="25.67"/><rect class="cls-1" x="280.39" y="274.52" width="25.55" height="25.67"/><rect class="cls-1" x="100.31" y="274.52" width="25.55" height="25.67"/><rect class="cls-1" x="733.97" y="47.84" width="25.55" height="25.67"/><rect class="cls-1" x="506.74" y="47.84" width="25.55" height="25.67"/><rect class="cls-1" x="280.39" y="47.84" width="25.55" height="25.67"/><rect class="cls-1" x="47.33" y="47.84" width="25.55" height="25.67"/><rect class="cls-1" x="153.54" y="501.2" width="25.55" height="25.67"/><rect class="cls-1" x="280.56" y="501.2" width="25.55" height="25.67"/><rect class="cls-1" x="507.12" y="501.2" width="25.55" height="25.67"/><rect class="cls-1" x="733.84" y="501.2" width="25.55" height="25.67"/><line class="cls-2" x1="371.2" y1="339.19" x2="405.16" y2="339.19"/><line class="cls-2" x1="371.2" y1="344.69" x2="405.16" y2="344.69"/><line class="cls-2" x1="371.2" y1="350.19" x2="405.16" y2="350.19"/><line class="cls-2" x1="371.2" y1="355.7" x2="405.16" y2="355.7"/><line class="cls-2" x1="371.2" y1="361.2" x2="405.16" y2="361.2"/><line class="cls-2" x1="371.2" y1="366.7" x2="405.16" y2="366.7"/><line class="cls-2" x1="371.2" y1="372.2" x2="405.16" y2="372.2"/><line class="cls-2" x1="371.2" y1="377.7" x2="405.16" y2="377.7"/><line class="cls-2" x1="371.2" y1="383.2" x2="405.16" y2="383.2"/><line class="cls-2" x1="371.2" y1="388.7" x2="405.16" y2="388.7"/><line class="cls-2" x1="371.2" y1="394.2" x2="405.16" y2="394.2"/><line class="cls-2" x1="371.2" y1="399.71" x2="405.16" y2="399.71"/><line class="cls-2" x1="371.2" y1="405.21" x2="405.16" y2="405.21"/><line class="cls-2" x1="371.2" y1="410.71" x2="405.16" y2="410.71"/><line class="cls-2" x1="405.16" y1="339.19" x2="405.16" y2="410.71"/><line class="cls-2" x1="371.2" y1="339.19" x2="371.2" y2="410.71"/><line class="cls-2" x1="408.19" y1="339.19" x2="442.14" y2="339.19"/><line class="cls-2" x1="408.19" y1="344.69" x2="442.14" y2="344.69"/><line class="cls-2" x1="408.19" y1="350.19" x2="442.14" y2="350.19"/><line class="cls-2" x1="408.19" y1="355.7" x2="442.14" y2="355.7"/><line class="cls-2" x1="408.19" y1="361.2" x2="442.14" y2="361.2"/><line class="cls-2" x1="408.19" y1="366.7" x2="442.14" y2="366.7"/><line class="cls-2" x1="408.19" y1="372.2" x2="442.14" y2="372.2"/><line class="cls-2" x1="408.19" y1="377.7" x2="442.14" y2="377.7"/><line class="cls-2" x1="408.19" y1="383.2" x2="442.14" y2="383.2"/><line class="cls-2" x1="408.19" y1="388.7" x2="442.14" y2="388.7"/><line class="cls-2" x1="408.19" y1="394.2" x2="442.14" y2="394.2"/><line class="cls-2" x1="408.19" y1="399.71" x2="442.14" y2="399.71"/><line class="cls-2" x1="408.19" y1="405.21" x2="442.14" y2="405.21"/><line class="cls-2" x1="408.19" y1="410.71" x2="442.14" y2="410.71"/><line class="cls-2" x1="442.14" y1="339.19" x2="442.14" y2="410.71"/><line class="cls-2" x1="408.19" y1="339.19" x2="408.19" y2="410.71"/><line class="cls-2" x1="563.04" y1="339.19" x2="596.99" y2="339.19"/><line class="cls-2" x1="563.04" y1="344.69" x2="596.99" y2="344.69"/><line class="cls-2" x1="563.04" y1="350.19" x2="596.99" y2="350.19"/><line class="cls-2" x1="563.04" y1="355.7" x2="596.99" y2="355.7"/><line class="cls-2" x1="563.04" y1="361.2" x2="596.99" y2="361.2"/><line class="cls-2" x1="563.04" y1="366.7" x2="596.99" y2="366.7"/><line class="cls-2" x1="563.04" y1="372.2" x2="596.99" y2="372.2"/><line class="cls-2" x1="563.04" y1="377.7" x2="596.99" y2="377.7"/><line class="cls-2" x1="563.04" y1="383.2" x2="596.99" y2="383.2"/><line class="cls-2" x1="563.04" y1="388.7" x2="596.99" y2="388.7"/><line class="cls-2" x1="563.04" y1="394.2" x2="596.99" y2="394.2"/><line class="cls-2" x1="563.04" y1="399.71" x2="596.99" y2="399.71"/><line class="cls-2" x1="563.04" y1="405.21" x2="596.99" y2="405.21"/><line class="cls-2" x1="563.04" y1="410.71" x2="596.99" y2="410.71"/><line class="cls-2" x1="596.99" y1="339.19" x2="596.99" y2="410.71"/><line class="cls-2" x1="563.04" y1="339.19" x2="563.04" y2="410.71"/><line class="cls-2" x1="600.02" y1="339.19" x2="633.97" y2="339.19"/><line class="cls-2" x1="600.02" y1="344.69" x2="633.97" y2="344.69"/><line class="cls-2" x1="600.02" y1="350.19" x2="633.97" y2="350.19"/><line class="cls-2" x1="600.02" y1="355.7" x2="633.97" y2="355.7"/><line class="cls-2" x1="600.02" y1="361.2" x2="633.97" y2="361.2"/><line class="cls-2" x1="600.02" y1="366.7" x2="633.97" y2="366.7"/><line class="cls-2" x1="600.02" y1="372.2" x2="633.97" y2="372.2"/><line class="cls-2" x1="600.02" y1="377.7" x2="633.97" y2="377.7"/><line class="cls-2" x1="600.02" y1="383.2" x2="633.97" y2="383.2"/><line class="cls-2" x1="600.02" y1="388.7" x2="633.97" y2="388.7"/><line class="cls-2" x1="600.02" y1="394.2" x2="633.97" y2="394.2"/><line class="cls-2" x1="600.02" y1="399.71" x2="633.97" y2="399.71"/><line class="cls-2" x1="600.02" y1="405.21" x2="633.97" y2="405.21"/><line class="cls-2" x1="600.02" y1="410.71" x2="633.97" y2="410.71"/><line class="cls-2" x1="633.97" y1="339.19" x2="633.97" y2="410.71"/><line class="cls-2" x1="600.02" y1="339.19" x2="600.02" y2="410.71"/><path d="M898.05,186.31V160.65H872.1V116.86H203l0,42.9h-33l6.64,26.63H134.25l101.6,434.33.36,1.55h40.68l6.77,25.7h25.39v43.91H506.21v9.58H742.59v-9.77H872.65v-44h25.53v-25h63.19V186.31Zm59.32,432.38H894.18v25H868.65v44H742.59V567.16h31.76v-37h14V490.65h-14V472.18H797V402.82H667v4h61V422h42.38V563.16H740.59V563H695.46V453.35h-4v5H640.73v4h9.49V490.9H640.14v53.71h4V494.9h10.08V462.35h37.24V491H674.11v4h17.35v45.89H664.15v4h27.31V563H668.75v4h5v14.09h4V567h60.88V697.46H677.71V680.69h-4v16.77h-99.4V680.69h-4v16.77h-60.1V568.52H582v-4H502.86V459.46H484.31v-37h93.53V534.71h4V404.27h-4v14.21H521.07V395.24h-4v23.24H465.42V395.24h-4v27.24h18.89v41h18.55V566.52h.05v2h7.3V687.88H313.05V644H286.74L280,618.27h-40.6L139.3,190.39h42.33L175,163.76h31.9l0-42.9H868.1v43.79h25.95v25.66h63.32ZM732,418V406.82h61V418Zm61,4v46.21H774.35V422Zm-18.64,72.68h10v31.49h-10Z" transform="translate(-134.25 -116.86)"/><polygon points="539.46 538.57 543.46 538.57 543.46 522.45 532.99 522.45 532.99 505.45 543.46 505.45 543.46 490.09 539.46 490.09 539.46 501.45 528.99 501.45 528.99 526.45 539.46 526.45 539.46 538.57"/><rect x="436.05" y="490.09" width="4" height="48.48"/><rect class="cls-3" x="181.96" y="191.05" width="38.28" height="34.02"/><rect class="cls-3" x="180.28" y="284.59" width="43.38" height="36.84"/><rect class="cls-3" x="576.52" y="191.05" width="49.08" height="34.02"/><rect class="cls-3" x="641.2" y="191.05" width="44.76" height="34.02"/><rect class="cls-3" x="654.95" y="376.75" width="44.93" height="33.96"/><polygon class="cls-4" points="699.88 288.85 663.88 288.85 663.88 356 641.03 356 641.03 373.87 699.88 373.87 699.88 288.85"/><rect class="cls-4" x="621.46" y="228.19" width="78.42" height="57.84"/><polygon class="cls-4" points="573.7 208.63 532.72 208.63 532.72 285.4 618.64 285.4 618.64 227.89 573.7 227.89 573.7 208.63"/></g><g id="puestos"><rect class="cls-5" x="89.33" y="127.53" width="44.98" height="38.86"/><polygon class="cls-6" points="88.33 127.53 88.33 166.39 27.76 166.39 18.31 127.53 88.33 127.53"/><polygon class="cls-5" points="6.05 74.25 18.31 126.34 60.1 126.34 60.1 74.25 6.05 74.25"/><rect class="cls-5" x="167.2" y="61.39" width="39.97" height="39.97"/><rect class="cls-6" x="167.2" y="103.13" width="39.97" height="39.97"/><rect class="cls-5" x="239.32" y="66.49" width="39.97" height="39.97"/><rect class="cls-6" x="282.05" y="73.51" width="39.97" height="39.97"/><rect class="cls-5" x="282.05" y="113.48" width="39.97" height="39.97"/><rect class="cls-5" x="368.09" y="68.05" width="39.97" height="43.9"/><rect class="cls-6" x="368.09" y="111.94" width="39.97" height="43.9"/><rect class="cls-6" x="409.45" y="68.05" width="39.97" height="43.9"/><rect class="cls-5" x="409.45" y="111.94" width="39.97" height="43.9"/><rect class="cls-5" x="491.15" y="68.05" width="39.97" height="43.9"/><rect class="cls-6" x="491.15" y="111.94" width="39.97" height="43.9"/><rect class="cls-6" x="532.92" y="64.35" width="39.97" height="43.9"/><rect class="cls-5" x="532.92" y="108.24" width="39.97" height="43.9"/><rect class="cls-5" x="592.32" y="68.05" width="39.97" height="43.9"/><rect class="cls-6" x="592.32" y="111.94" width="39.97" height="43.9"/><rect class="cls-6" x="634.2" y="62.77" width="39.97" height="43.9"/><rect class="cls-5" x="634.2" y="106.67" width="39.97" height="43.9"/><rect class="cls-6" x="694" y="113.11" width="39.97" height="42.73"/><rect class="cls-6" x="769.33" y="248.47" width="53.83" height="48.9"/><rect class="cls-6" x="694" y="17.94" width="39.97" height="42.73"/><rect class="cls-5" x="634.2" y="17.94" width="39.97" height="42.73"/><rect class="cls-6" x="592.32" y="17.94" width="39.97" height="42.73"/><rect class="cls-5" x="532.92" y="4.15" width="39.97" height="42.73"/><rect class="cls-6" x="491.15" y="4.15" width="39.97" height="42.73"/><rect class="cls-5" x="409.45" y="17.94" width="39.97" height="42.73"/><rect class="cls-6" x="368.09" y="4.15" width="39.97" height="42.73"/><rect class="cls-5" x="282.05" y="4.15" width="39.97" height="42.73"/><rect class="cls-6" x="207.16" y="4.15" width="52.14" height="42.73"/><rect class="cls-6" x="93.8" y="4.15" width="52.14" height="42.73"/><rect class="cls-5" x="281.86" y="325.69" width="31.05" height="36.4"/><rect class="cls-5" x="281.86" y="414.65" width="31.05" height="36.4"/><rect class="cls-6" x="314.37" y="325.69" width="31.05" height="36.4"/><rect class="cls-5" x="329.16" y="371.05" width="34.42" height="41.4"/><rect class="cls-6" x="314.37" y="414.65" width="31.05" height="36.4"/><rect class="cls-6" x="280.48" y="452.95" width="33.11" height="36.37"/><rect class="cls-5" x="320.65" y="452.95" width="33.11" height="36.37"/><rect class="cls-6" x="335.12" y="489.32" width="35.57" height="36.37"/><rect class="cls-5" x="303.63" y="534.13" width="47.66" height="36.37"/><rect class="cls-6" x="244.99" y="534.13" width="48.21" height="36.37"/><rect class="cls-7" x="608.48" y="466.03" width="125.54" height="104.88"/><rect class="cls-8" x="736.84" y="354.07" width="86.46" height="147.36"/><rect class="cls-7" x="736.84" y="300.19" width="86.46" height="51"/><rect class="cls-7" x="736.84" y="157.33" width="86.46" height="88.14"/><rect class="cls-8" x="736.84" y="73.45" width="86.46" height="81.06"/><polygon class="cls-8" points="28.78 169.21 41.29 223.63 132.94 223.63 132.94 169.21 28.78 169.21"/><polygon class="cls-7" points="42.31 226.51 55.08 281.77 99.37 281.77 99.37 273.79 126.82 273.79 126.82 281.77 132.94 281.77 132.94 226.51 42.31 226.51"/><polygon class="cls-7" points="56.31 283.88 107.03 498.82 165.28 498.82 165.28 283.88 127.12 283.88 127.12 301.07 99.03 301.07 99.03 283.88 56.31 283.88"/><polygon class="cls-8" points="168.1 324.31 168.1 377.83 242.08 377.83 242.08 304.45 226.54 304.45 226.54 324.31 168.1 324.31"/><rect class="cls-8" x="168.1" y="380.71" width="73.98" height="52.14"/><rect class="cls-8" x="168.1" y="435.67" width="73.98" height="55.56"/><polygon class="cls-8" points="168.1 494.05 168.1 500.51 179.67 500.51 179.67 570.5 242.08 570.5 242.08 494.05 168.1 494.05"/><polygon class="cls-4" points="223.06 191.05 223.06 281.77 280.39 281.77 280.39 274.52 325.78 274.52 325.78 191.05 223.06 191.05"/></g></svg>